# Blender v2.80 (sub 75) OBJ File: ''
# www.blender.org
mtllib arrow.mtl
o Cone
v 0.000000 -3.500000 -3.500000
v 0.000000 3.500000 0.000001
v 0.682815 -3.500000 -3.432748
v 1.339391 -3.500000 -3.233580
v 1.944495 -3.500000 -2.910146
v 2.474874 -3.500000 -2.474875
v 2.910145 -3.500000 -1.944496
v 3.233580 -3.500000 -1.339391
v 3.432748 -3.500000 -0.682816
v 3.500000 -3.500000 -0.000001
v 3.432748 -3.500000 0.682814
v 3.233580 -3.500000 1.339390
v 2.910145 -3.500000 1.944494
v 2.474874 -3.500000 2.474874
v 1.944495 -3.500000 2.910145
v 1.339391 -3.500000 3.233579
v 0.682815 -3.500000 3.432747
v 0.000000 -3.500000 3.500000
v -0.682818 -3.500000 3.432747
v -1.339394 -3.500000 3.233576
v -1.944499 -3.500000 2.910141
v -2.474874 -3.500000 2.474870
v -2.910145 -3.500000 1.944494
v -3.233580 -3.500000 1.339390
v -3.432748 -3.500000 0.682811
v -3.500000 -3.500000 -0.000004
v -3.432748 -3.500000 -0.682819
v -3.233577 -3.500000 -1.339395
v -2.910141 -3.500000 -1.944499
v -2.474871 -3.500000 -2.474879
v -1.944492 -3.500000 -2.910146
v -1.339387 -3.500000 -3.233580
v -0.682811 -3.500000 -3.432752
v 1.500000 -2.540301 -1.499999
v 1.499997 -21.088366 -1.500005
v 1.178539 -21.088366 -1.763818
v 1.178542 -2.540301 -1.763812
v 0.811790 -21.088366 -1.959848
v 0.811794 -2.540301 -1.959843
v 0.413844 -21.088366 -2.080562
v 0.413849 -2.540301 -2.080558
v -0.000005 -21.088366 -2.121322
v 0.000000 -2.540301 -2.121319
v -0.413853 -21.088366 -2.080561
v -0.413849 -2.540301 -2.080558
v -0.811797 -21.088366 -1.959845
v -0.811794 -2.540301 -1.959843
v -1.178545 -21.088366 -1.763814
v -1.178542 -2.540301 -1.763812
v -1.500001 -21.088366 -1.500001
v -1.500000 -2.540301 -1.499998
v -1.763814 -21.088366 -1.178544
v -1.763813 -2.540301 -1.178541
v -1.959845 -21.088366 -0.811796
v -1.959845 -2.540301 -0.811792
v -2.080559 -21.088366 -0.413852
v -2.080560 -2.540301 -0.413847
v -2.121320 -21.088366 -0.000003
v -2.121320 -2.540301 0.000002
v -2.080560 -21.088366 0.413845
v -2.080559 -2.540301 0.413851
v -1.959846 -21.088366 0.811789
v -1.959844 -2.540301 0.811797
v -1.763816 -21.088366 1.178537
v -1.763813 -2.540301 1.178545
v -1.500004 -21.088366 1.499995
v -1.499999 -2.540301 1.500003
v -1.178548 -21.088366 1.763808
v -1.178541 -2.540301 1.763816
v -0.811801 -21.088366 1.959840
v -0.811792 -2.540301 1.959847
v -0.413857 -21.088366 2.080557
v -0.413847 -2.540301 2.080561
v -0.000009 -21.088366 2.121319
v 0.000002 -2.540301 2.121322
v 0.413840 -21.088366 2.080560
v 0.413851 -2.540301 2.080561
v 0.811785 -21.088366 1.959847
v 0.811797 -2.540301 1.959845
v 1.178533 -21.088366 1.763818
v 1.178545 -2.540301 1.763813
v 1.499991 -21.088366 1.500007
v 1.500002 -2.540301 1.500000
v 1.763806 -21.088366 1.178551
v 1.763815 -2.540301 1.178541
v 1.959839 -21.088366 0.811805
v 1.959846 -2.540301 0.811793
v 2.080557 -21.088366 0.413862
v 2.080561 -2.540301 0.413847
v 2.121320 -21.088366 0.000014
v 2.121320 -2.540301 -0.000002
v 2.080563 -21.088366 -0.413835
v 2.080559 -2.540301 -0.413851
v 1.959851 -21.088366 -0.811780
v 1.959843 -2.540301 -0.811796
v 1.763823 -21.088366 -1.178529
v 1.763811 -2.540301 -1.178544
v 0.000000 -2.540301 0.000001
v -0.000000 -21.088366 -0.000002
vt 0.000000 0.000000
vt 0.000000 0.000000
vt 0.000000 0.000000
vt 0.000000 0.000000
vt 0.000000 0.000000
vt 0.000000 0.000000
vt 0.000000 0.000000
vt 0.000000 0.000000
vt 0.000000 0.000000
vt 0.000000 0.000000
vt 0.000000 0.000000
vt 0.000000 0.000000
vt 0.000000 0.000000
vt 0.000000 0.000000
vt 0.000000 0.000000
vt 0.000000 0.000000
vt 0.000000 0.000000
vt 0.000000 0.000000
vt 0.000000 0.000000
vt 0.000000 0.000000
vt 0.000000 0.000000
vt 0.000000 0.000000
vt 0.000000 0.000000
vt 0.000000 0.000000
vt 0.000000 0.000000
vt 0.000000 0.000000
vt 0.000000 0.000000
vt 0.000000 0.000000
vt 0.000000 0.000000
vt 0.000000 0.000000
vt 0.000000 0.000000
vt 0.000000 0.000000
vt 0.000000 0.000000
vt 0.000000 0.000000
vt 0.000000 0.000000
vt 0.000000 0.000000
vt 0.000000 0.000000
vt 0.000000 0.000000
vt 0.000000 0.000000
vt 0.000000 0.000000
vt 0.000000 0.000000
vt 0.000000 0.000000
vt 0.000000 0.000000
vt 0.000000 0.000000
vt 0.000000 0.000000
vt 0.000000 0.000000
vt 0.000000 0.000000
vt 0.000000 0.000000
vt 0.000000 0.000000
vt 0.000000 0.000000
vt 0.000000 0.000000
vt 0.000000 0.000000
vt 0.000000 0.000000
vt 0.000000 0.000000
vt 0.000000 0.000000
vt 0.000000 0.000000
vt 0.000000 0.000000
vt 0.000000 0.000000
vt 0.000000 0.000000
vt 0.000000 0.000000
vt 0.000000 0.000000
vt 0.000000 0.000000
vt 0.000000 0.000000
vt 0.000000 0.000000
vt 0.000000 0.000000
vt 0.000000 0.000000
vt 0.000000 0.000000
vt 0.000000 0.000000
vt 0.000000 0.000000
vt 0.000000 0.000000
vt 0.000000 0.000000
vt 0.000000 0.000000
vt 0.000000 0.000000
vt 0.000000 0.000000
vt 0.000000 0.000000
vt 0.000000 0.000000
vt 0.000000 0.000000
vt 0.000000 0.000000
vt 0.000000 0.000000
vt 0.000000 0.000000
vt 0.000000 0.000000
vt 0.000000 0.000000
vt 0.000000 0.000000
vt 0.000000 0.000000
vt 0.000000 0.000000
vt 0.000000 0.000000
vt 0.000000 0.000000
vt 0.000000 0.000000
vt 0.000000 0.000000
vt 0.000000 0.000000
vt 0.000000 0.000000
vt 0.000000 0.000000
vt 0.000000 0.000000
vt 0.000000 0.000000
vt 0.000000 0.000000
vt 0.000000 0.000000
vt 0.000000 0.000000
vt 0.000000 0.000000
vt 0.000000 0.000000
vn 0.0878 0.4455 -0.8910
vn 0.2599 0.4455 -0.8567
vn 0.4220 0.4455 -0.7896
vn 0.5680 0.4455 -0.6921
vn 0.6921 0.4455 -0.5680
vn 0.7896 0.4455 -0.4220
vn 0.8567 0.4455 -0.2599
vn 0.8910 0.4455 -0.0878
vn 0.8910 0.4455 0.0878
vn 0.8567 0.4455 0.2599
vn 0.7896 0.4455 0.4220
vn 0.6921 0.4455 0.5680
vn 0.5680 0.4455 0.6921
vn 0.4220 0.4455 0.7896
vn 0.2599 0.4455 0.8567
vn 0.0878 0.4455 0.8910
vn -0.0878 0.4455 0.8910
vn -0.2599 0.4455 0.8567
vn -0.4220 0.4455 0.7896
vn -0.5680 0.4455 0.6921
vn -0.6921 0.4455 0.5680
vn -0.7896 0.4455 0.4220
vn -0.8567 0.4455 0.2599
vn -0.8910 0.4455 0.0878
vn -0.8910 0.4455 -0.0878
vn -0.8567 0.4455 -0.2599
vn -0.7896 0.4455 -0.4220
vn -0.6921 0.4455 -0.5680
vn -0.5680 0.4455 -0.6921
vn -0.4220 0.4455 -0.7896
vn -0.2599 0.4455 -0.8567
vn -0.0878 0.4455 -0.8910
vn 0.0000 -1.0000 -0.0000
vn 0.3909 0.8333 -0.3909
vn 0.3909 -0.8333 -0.3909
vn 0.3071 -0.8333 -0.4597
vn 0.3071 0.8333 -0.4597
vn 0.2115 -0.8333 -0.5108
vn 0.2116 0.8333 -0.5108
vn 0.1078 -0.8333 -0.5422
vn 0.1079 0.8333 -0.5422
vn -0.0000 -0.8333 -0.5528
vn 0.0000 0.8333 -0.5528
vn -0.1079 -0.8333 -0.5422
vn -0.1079 0.8333 -0.5422
vn -0.2116 -0.8333 -0.5107
vn -0.2116 0.8333 -0.5108
vn -0.3072 -0.8333 -0.4597
vn -0.3071 0.8333 -0.4597
vn -0.3909 -0.8333 -0.3909
vn -0.3909 0.8333 -0.3909
vn -0.4597 -0.8333 -0.3071
vn -0.4597 0.8333 -0.3071
vn -0.5108 -0.8333 -0.2115
vn -0.5108 0.8333 -0.2116
vn -0.5422 -0.8333 -0.1078
vn -0.5422 0.8333 -0.1079
vn -0.5528 -0.8333 0.0000
vn -0.5528 0.8333 -0.0000
vn -0.5422 -0.8333 0.1079
vn -0.5422 0.8333 0.1078
vn -0.5108 -0.8333 0.2115
vn -0.5108 0.8333 0.2116
vn -0.4597 -0.8333 0.3072
vn -0.4597 0.8333 0.3071
vn -0.3909 -0.8333 0.3909
vn -0.3909 0.8333 0.3909
vn -0.3071 -0.8333 0.4597
vn -0.3071 0.8333 0.4597
vn -0.2115 -0.8333 0.5108
vn -0.2116 0.8333 0.5108
vn -0.1078 -0.8333 0.5422
vn -0.1079 0.8333 0.5422
vn 0.0000 -0.8333 0.5528
vn -0.0000 0.8333 0.5528
vn 0.1079 -0.8333 0.5422
vn 0.1078 0.8333 0.5422
vn 0.2116 -0.8333 0.5107
vn 0.2116 0.8333 0.5108
vn 0.3072 -0.8333 0.4597
vn 0.3071 0.8333 0.4597
vn 0.3909 -0.8333 0.3909
vn 0.3909 0.8333 0.3909
vn 0.4597 -0.8333 0.3071
vn 0.4597 0.8333 0.3071
vn 0.5108 -0.8333 0.2115
vn 0.5108 0.8333 0.2116
vn 0.5422 -0.8333 0.1077
vn 0.5422 0.8333 0.1079
vn 0.5528 -0.8333 -0.0000
vn 0.5528 0.8333 0.0000
vn 0.5422 -0.8333 -0.1078
vn 0.5422 0.8333 -0.1078
vn 0.5107 -0.8333 -0.2116
vn 0.5108 0.8333 -0.2116
vn 0.4597 -0.8333 -0.3072
vn 0.4597 0.8333 -0.3071
vn 0.0000 1.0000 0.0000
usemtl None
s 1
f 1/1/1 2/2/1 3/3/1
f 3/3/2 2/2/2 4/4/2
f 4/4/3 2/2/3 5/5/3
f 5/5/4 2/2/4 6/6/4
f 6/6/5 2/2/5 7/7/5
f 7/7/6 2/2/6 8/8/6
f 8/8/7 2/2/7 9/9/7
f 9/9/8 2/2/8 10/10/8
f 10/10/9 2/2/9 11/11/9
f 11/11/10 2/2/10 12/12/10
f 12/12/11 2/2/11 13/13/11
f 13/13/12 2/2/12 14/14/12
f 14/14/13 2/2/13 15/15/13
f 15/15/14 2/2/14 16/16/14
f 16/16/15 2/2/15 17/17/15
f 17/17/16 2/2/16 18/18/16
f 18/18/17 2/2/17 19/19/17
f 19/19/18 2/2/18 20/20/18
f 20/20/19 2/2/19 21/21/19
f 21/21/20 2/2/20 22/22/20
f 22/22/21 2/2/21 23/23/21
f 23/23/22 2/2/22 24/24/22
f 24/24/23 2/2/23 25/25/23
f 25/25/24 2/2/24 26/26/24
f 26/26/25 2/2/25 27/27/25
f 27/27/26 2/2/26 28/28/26
f 28/28/27 2/2/27 29/29/27
f 29/29/28 2/2/28 30/30/28
f 30/30/29 2/2/29 31/31/29
f 31/31/30 2/2/30 32/32/30
f 32/32/31 2/2/31 33/33/31
f 33/33/32 2/2/32 1/1/32
f 1/1/33 3/3/33 4/4/33 5/5/33 6/6/33 7/7/33 8/8/33 9/9/33 10/10/33 11/11/33 12/12/33 13/13/33 14/14/33 15/15/33 16/16/33 17/17/33 18/18/33 19/19/33 20/20/33 21/21/33 22/22/33 23/23/33 24/24/33 25/25/33 26/26/33 27/27/33 28/28/33 29/29/33 30/30/33 31/31/33 32/32/33 33/33/33
usemtl Default_OBJ
f 34/34/34 35/35/35 36/36/36 37/37/37
f 37/37/37 36/36/36 38/38/38 39/39/39
f 39/39/39 38/38/38 40/40/40 41/41/41
f 41/41/41 40/40/40 42/42/42 43/43/43
f 43/43/43 42/42/42 44/44/44 45/45/45
f 45/45/45 44/44/44 46/46/46 47/47/47
f 47/47/47 46/46/46 48/48/48 49/49/49
f 49/49/49 48/48/48 50/50/50 51/51/51
f 51/51/51 50/50/50 52/52/52 53/53/53
f 53/53/53 52/52/52 54/54/54 55/55/55
f 55/55/55 54/54/54 56/56/56 57/57/57
f 57/57/57 56/56/56 58/58/58 59/59/59
f 59/59/59 58/58/58 60/60/60 61/61/61
f 61/61/61 60/60/60 62/62/62 63/63/63
f 63/63/63 62/62/62 64/64/64 65/65/65
f 65/65/65 64/64/64 66/66/66 67/67/67
f 67/67/67 66/66/66 68/68/68 69/69/69
f 69/69/69 68/68/68 70/70/70 71/71/71
f 71/71/71 70/70/70 72/72/72 73/73/73
f 73/73/73 72/72/72 74/74/74 75/75/75
f 75/75/75 74/74/74 76/76/76 77/77/77
f 77/77/77 76/76/76 78/78/78 79/79/79
f 79/79/79 78/78/78 80/80/80 81/81/81
f 81/81/81 80/80/80 82/82/82 83/83/83
f 83/83/83 82/82/82 84/84/84 85/85/85
f 85/85/85 84/84/84 86/86/86 87/87/87
f 87/87/87 86/86/86 88/88/88 89/89/89
f 89/89/89 88/88/88 90/90/90 91/91/91
f 91/91/91 90/90/90 92/92/92 93/93/93
f 93/93/93 92/92/92 94/94/94 95/95/95
f 95/95/95 94/94/94 96/96/96 97/97/97
f 35/35/35 34/34/34 97/97/97 96/96/96
f 98/98/98 34/34/34 37/37/37
f 99/99/33 36/36/36 35/35/35
f 98/98/98 37/37/37 39/39/39
f 99/99/33 38/38/38 36/36/36
f 98/98/98 39/39/39 41/41/41
f 99/99/33 40/40/40 38/38/38
f 98/98/98 41/41/41 43/43/43
f 99/99/33 42/42/42 40/40/40
f 98/98/98 43/43/43 45/45/45
f 99/99/33 44/44/44 42/42/42
f 98/98/98 45/45/45 47/47/47
f 99/99/33 46/46/46 44/44/44
f 98/98/98 47/47/47 49/49/49
f 99/99/33 48/48/48 46/46/46
f 98/98/98 49/49/49 51/51/51
f 99/99/33 50/50/50 48/48/48
f 98/98/98 51/51/51 53/53/53
f 99/99/33 52/52/52 50/50/50
f 98/98/98 53/53/53 55/55/55
f 99/99/33 54/54/54 52/52/52
f 98/98/98 55/55/55 57/57/57
f 99/99/33 56/56/56 54/54/54
f 98/98/98 57/57/57 59/59/59
f 99/99/33 58/58/58 56/56/56
f 98/98/98 59/59/59 61/61/61
f 99/99/33 60/60/60 58/58/58
f 98/98/98 61/61/61 63/63/63
f 99/99/33 62/62/62 60/60/60
f 98/98/98 63/63/63 65/65/65
f 99/99/33 64/64/64 62/62/62
f 98/98/98 65/65/65 67/67/67
f 99/99/33 66/66/66 64/64/64
f 98/98/98 67/67/67 69/69/69
f 99/99/33 68/68/68 66/66/66
f 98/98/98 69/69/69 71/71/71
f 99/99/33 70/70/70 68/68/68
f 98/98/98 71/71/71 73/73/73
f 99/99/33 72/72/72 70/70/70
f 98/98/98 73/73/73 75/75/75
f 99/99/33 74/74/74 72/72/72
f 98/98/98 75/75/75 77/77/77
f 99/99/33 76/76/76 74/74/74
f 98/98/98 77/77/77 79/79/79
f 99/99/33 78/78/78 76/76/76
f 98/98/98 79/79/79 81/81/81
f 99/99/33 80/80/80 78/78/78
f 98/98/98 81/81/81 83/83/83
f 99/99/33 82/82/82 80/80/80
f 98/98/98 83/83/83 85/85/85
f 99/99/33 84/84/84 82/82/82
f 98/98/98 85/85/85 87/87/87
f 99/99/33 86/86/86 84/84/84
f 98/98/98 87/87/87 89/89/89
f 99/99/33 88/88/88 86/86/86
f 98/98/98 89/89/89 91/91/91
f 99/99/33 90/90/90 88/88/88
f 98/98/98 91/91/91 93/93/93
f 99/99/33 92/92/92 90/90/90
f 98/98/98 93/93/93 95/95/95
f 99/99/33 94/94/94 92/92/92
f 98/98/98 95/95/95 97/97/97
f 99/99/33 96/96/96 94/94/94
f 97/97/97 34/34/34 98/98/98
f 99/99/33 35/35/35 96/96/96
